<svg width="150" height="150" viewBox="0 0 150 150" fill="none" xmlns="http://www.w3.org/2000/svg">
<circle cx="75" cy="75" r="73.5" stroke="white" stroke-width="3"/>
<path d="M75 59.1683C75.8399 59.1683 76.6453 58.8347 77.2392 58.2408C77.833 57.6469 78.1667 56.8415 78.1667 56.0016C78.1667 55.1618 77.833 54.3563 77.2392 53.7625C76.6453 53.1686 75.8399 52.835 75 52.835C74.1601 52.835 73.3547 53.1686 72.7608 53.7625C72.167 54.3563 71.8333 55.1618 71.8333 56.0016C71.8333 56.8415 72.167 57.6469 72.7608 58.2408C73.3547 58.8347 74.1601 59.1683 75 59.1683ZM77.1312 44.0411C76.5157 43.5816 75.7681 43.3334 75 43.3334C74.2319 43.3334 73.4843 43.5816 72.8688 44.0411L47.6242 62.886C45.4867 64.4804 46.6156 67.8766 49.2803 67.8766H51.25V86.8846C49.8286 87.5588 48.6277 88.6225 47.7869 89.9521C46.9461 91.2818 46.4998 92.8227 46.5 94.3959V99.9376C46.5 101.03 47.3867 101.917 48.4792 101.917H101.521C102.613 101.917 103.5 101.03 103.5 99.9376V94.3959C103.5 92.8227 103.054 91.2818 102.213 89.9521C101.372 88.6225 100.171 87.5588 98.75 86.8846V67.8751H100.72C103.386 67.8751 104.513 64.4788 102.377 62.8844L77.1312 44.0411ZM94.7917 86.0834H87.6667V67.8751H94.7917V86.0834ZM83.7083 86.0834H76.9792V67.8751H83.7083V86.0834ZM73.0208 86.0834H66.2917V67.8751H73.0208V86.0834ZM62.3333 86.0834H55.2083V67.8751H62.3333V86.0834ZM52.8555 63.9183L75 47.3883L97.1429 63.9183H52.8555ZM50.4583 94.3975C50.4583 93.2427 50.9171 92.1352 51.7336 91.3186C52.5502 90.5021 53.6577 90.0433 54.8125 90.0433H95.1875C96.3423 90.0433 97.4498 90.5021 98.2664 91.3186C99.0829 92.1352 99.5417 93.2427 99.5417 94.3975V97.96H50.4583V94.3975Z" fill="#F8F8F8"/>
</svg>
