<svg width="150" height="150" viewBox="0 0 150 150" fill="none" xmlns="http://www.w3.org/2000/svg">
<circle cx="75" cy="75" r="73.5" stroke="white" stroke-width="3"/>
<path d="M77.5233 62.4767L71 59.5L77.5233 56.5234L80.5 50L83.4767 56.5234L90 59.5L83.4767 62.4767L80.5 69L77.5233 62.4767ZM45.6667 75.3334L48.6433 68.81L55.1667 65.8334L48.6433 62.8567L45.6667 56.3334L42.69 62.8567L36.1667 65.8334L42.69 68.81L45.6667 75.3334ZM59.9167 59.5L63.3683 51.8684L71 48.4167L63.3683 44.965L59.9167 37.3334L56.465 44.965L48.8333 48.4167L56.465 51.8684L59.9167 59.5ZM47.25 95.9167L66.25 76.885L78.9167 89.5517L105.833 59.2784L101.368 54.8134L78.9167 80.0517L66.25 67.385L42.5 91.1667L47.25 95.9167Z" fill="#F8F8F8"/>
</svg>
