<svg width="150" height="150" viewBox="0 0 150 150" fill="none" xmlns="http://www.w3.org/2000/svg">
<circle cx="75" cy="75" r="73.5" stroke="white" stroke-width="3"/>
<path d="M103.75 41H95.25C94.1228 41 93.0418 41.3604 92.2448 42.002C91.4478 42.6435 91 43.5137 91 44.421V102.551H108V44.421C108 43.5137 107.552 42.6435 106.755 42.002C105.958 41.3604 104.877 41 103.75 41ZM78.25 61.526H69.75C68.6228 61.526 67.5418 61.8864 66.7448 62.528C65.9478 63.1695 65.5 64.0397 65.5 64.947V102.551H82.5V64.947C82.5 64.0397 82.0522 63.1695 81.2552 62.528C80.4582 61.8864 79.3772 61.526 78.25 61.526ZM52.75 82.0519H44.25C43.1228 82.0519 42.0418 82.4124 41.2448 83.0539C40.4478 83.6955 40 84.5656 40 85.4729V102.551H57V85.4729C57 84.5656 56.5522 83.6955 55.7552 83.0539C54.9582 82.4124 53.8772 82.0519 52.75 82.0519Z" fill="#F8F8F8"/>
</svg>
