<svg width="150" height="150" viewBox="0 0 150 150" fill="none" xmlns="http://www.w3.org/2000/svg">
<circle cx="75" cy="75" r="73.5" stroke="white" stroke-width="3"/>
<path d="M95.625 40.75L99.4084 47.875L107.5 48.8582L101.562 54.2091L102.75 62.125L95.625 57.6719L88.5 62.125L89.6875 54.2091L83.75 48.8582L92.0625 47.875L95.625 40.75Z" fill="#F8F8F8"/>
<path d="M94.9528 67.4665L90.3501 66.2837C89.525 69.4621 87.7765 72.3245 85.3253 74.5095C82.8742 76.6945 79.8304 78.104 76.5785 78.56C73.3267 79.0159 70.0126 78.4978 67.0551 77.0711C64.0976 75.6444 61.6292 73.3731 59.9619 70.5443C58.2947 67.7154 57.5032 64.4558 57.6876 61.1773C57.872 57.8988 59.024 54.7486 60.9979 52.1245C62.9719 49.5004 65.6794 47.5203 68.7782 46.4342C71.8771 45.3482 75.2283 45.2049 78.4086 46.0226L79.5937 41.4222C74.9576 40.2163 70.0507 40.6045 65.6619 42.5243C61.2731 44.444 57.6574 47.7839 55.3961 52.0069C53.1348 56.2299 52.3593 61.0907 53.1943 65.8076C54.0293 70.5246 56.4263 74.8238 59.9999 78.0139V107.25L74.2499 97.7501L88.5 107.25V78.0566C91.6543 75.2452 93.9006 71.5587 94.9528 67.4665ZM83.7499 98.3747L74.2499 92.0406L64.7499 98.3747V81.2439C67.6974 82.7245 70.9498 83.4969 74.2482 83.4993C77.5467 83.5018 80.8003 82.7344 83.7499 81.2581V98.3747Z" fill="#F8F8F8"/>
</svg>
