<svg width="150" height="150" viewBox="0 0 150 150" fill="none" xmlns="http://www.w3.org/2000/svg">
<circle cx="75" cy="75" r="73.5" stroke="white" stroke-width="3"/>
<g clip-path="url(#clip0)">
<path d="M102.195 103H98.4488V58.0439H102.195C103.249 58.0439 104.137 58.4049 104.859 59.1268C105.58 59.8488 105.941 60.7366 105.941 61.7902V99.2537C105.941 100.268 105.58 101.146 104.859 101.888C104.137 102.629 103.249 103 102.195 103ZM94.7024 103H57.239V58.0439H60.9854V54.2976C60.9854 51.1756 62.0781 48.5122 64.2634 46.3073C66.4488 44.1024 69.1024 43 72.2244 43H79.7171C82.839 43 85.4927 44.1024 87.6781 46.3073C89.8634 48.5122 90.9561 51.1756 90.9561 54.2976V58.0439H94.7024V103ZM83.4634 54.2976C83.4634 53.2439 83.0927 52.3561 82.3512 51.6341C81.6098 50.9122 80.7317 50.5512 79.7171 50.5512H72.2244C71.1707 50.5512 70.2829 50.9122 69.561 51.6341C68.839 52.3561 68.4781 53.2439 68.4781 54.2976V58.0439H83.4634V54.2976ZM46 99.2537V61.7902C46 60.7366 46.361 59.8488 47.0829 59.1268C47.8049 58.4049 48.6927 58.0439 49.7463 58.0439H53.4927V103H49.7463C48.6927 103 47.8049 102.629 47.0829 101.888C46.361 101.146 46 100.268 46 99.2537Z" fill="#F8F8F8"/>
</g>
<defs>
<clipPath id="clip0">
<rect width="59.9415" height="60" fill="white" transform="translate(46 43)"/>
</clipPath>
</defs>
</svg>
