<svg width="150" height="150" viewBox="0 0 150 150" fill="none" xmlns="http://www.w3.org/2000/svg">
<circle cx="75" cy="75" r="73.5" stroke="white" stroke-width="3"/>
<path fill-rule="evenodd" clip-rule="evenodd" d="M83.0211 53.3636C80.5337 53.6961 77.907 54.1775 75 54.7966C72.0914 54.1791 69.4662 53.6946 66.9788 53.3636C69.2826 54.2123 71.618 55.2668 74.0943 56.4321C74.6485 56.6934 75 57.2507 75 57.8619C75 57.2507 75.3531 56.6934 75.9057 56.4337C78.382 55.2668 80.719 54.2123 83.0211 53.3621V53.3636ZM75 94.6633C75 95.8255 73.7872 96.5902 72.7279 96.1121C65.0962 92.6572 58.6631 90.7952 50.0371 92.3691C49.0333 92.5527 48.0833 91.8006 48.0833 90.781V54.0571C46.9433 54.2867 45.7621 54.548 44.5319 54.8456C44.1896 54.9288 43.8853 55.1248 43.6678 55.4019C43.4504 55.6791 43.3326 56.0213 43.3333 56.3736V96.8103C43.3333 97.8126 44.2564 98.5599 45.2396 98.3731C55.0769 96.4968 61.7063 96.3654 70.7661 97.7397C71.1635 98.5211 71.7694 99.1772 72.5167 99.6355C73.2639 100.094 74.1234 100.336 75 100.336C75.8766 100.336 76.7361 100.094 77.4833 99.6355C78.2306 99.1772 78.8364 98.5211 79.2338 97.7397C88.2921 96.3654 94.9247 96.4968 104.76 98.3731C104.991 98.4177 105.229 98.4109 105.458 98.3532C105.686 98.2955 105.898 98.1882 106.08 98.039C106.262 97.8898 106.409 97.7024 106.51 97.49C106.612 97.2777 106.665 97.0456 106.667 96.8103V56.3751C106.668 56.0226 106.55 55.68 106.333 55.4025C106.115 55.1251 105.811 54.9289 105.468 54.8456C104.289 54.5601 103.105 54.2972 101.917 54.0571V90.781C101.917 91.8006 100.967 92.5527 99.9628 92.3691C91.3368 90.7952 84.9037 92.6572 77.2737 96.1121C76.2128 96.5902 75 95.8271 75 94.6633Z" fill="#F8F8F8"/>
<path fill-rule="evenodd" clip-rule="evenodd" d="M49.6667 53.6835V90.7826L49.6777 90.7937C49.6882 90.8023 49.7005 90.8084 49.7136 90.8117C49.7268 90.815 49.7405 90.8153 49.7538 90.8127C58.8263 89.1549 65.6077 91.1515 73.3802 94.6681C73.3842 94.6703 73.3885 94.6719 73.3929 94.6729H73.3945C73.4007 94.6721 73.4067 94.6699 73.4119 94.6665C73.4136 94.6656 73.4152 94.6645 73.4167 94.6634V57.8635C64.9981 53.8989 58.6252 51.4431 49.6667 53.6835ZM48.8497 50.6245C58.9735 48.0769 66.2347 50.9824 74.7688 55.0009C75.3114 55.2567 75.7701 55.6614 76.0914 56.168C76.4126 56.6746 76.5833 57.2621 76.5833 57.8619V94.6649C76.5833 97.0051 74.1577 98.4966 72.0756 97.5561C64.5864 94.1662 58.5001 92.4356 50.3206 93.9287C48.4 94.277 46.5 92.8441 46.5 90.781V53.6629C46.5 52.2617 47.4326 50.9808 48.8497 50.6229V50.6245Z" fill="#F8F8F8"/>
<path fill-rule="evenodd" clip-rule="evenodd" d="M100.333 53.6835V90.7826C100.321 90.7964 100.305 90.8063 100.287 90.8111C100.274 90.814 100.261 90.814 100.248 90.8111C91.1721 89.1549 84.3923 91.1515 76.6197 94.6697C76.6157 94.6714 76.6114 94.6724 76.607 94.6729H76.6055C76.5992 94.6721 76.5933 94.6699 76.588 94.6665L76.5833 94.6634V57.8619C85.0019 53.8973 91.3748 51.4431 100.333 53.6835ZM101.15 50.6245C91.0265 48.0769 83.7653 50.9824 75.2311 55.0009C74.6885 55.2571 74.2299 55.6622 73.9087 56.169C73.5874 56.6758 73.4168 57.2635 73.4166 57.8635V94.6649C73.4166 97.0051 75.8423 98.4966 77.9244 97.5561C85.4135 94.1662 91.5015 92.4356 99.6794 93.9287C101.6 94.277 103.5 92.8441 103.5 90.781V53.6629C103.5 52.2617 102.567 50.9808 101.15 50.6229V50.6245Z" fill="#F8F8F8"/>
<path fill-rule="evenodd" clip-rule="evenodd" d="M54.4325 82.9213C60.2433 82.8612 63.4844 83.447 69.6515 85.9661L70.8485 83.0337C64.3141 80.3658 60.655 79.6897 54.4008 79.7547L54.4325 82.9213Z" fill="#F8F8F8"/>
<path fill-rule="evenodd" clip-rule="evenodd" d="M54.4325 76.5881C60.2433 76.5279 63.4844 77.1137 69.6515 79.6328L70.8485 76.7005C64.3141 74.0326 60.655 73.3565 54.4008 73.4214L54.4325 76.5881Z" fill="#F8F8F8"/>
<path fill-rule="evenodd" clip-rule="evenodd" d="M54.4325 70.2547C60.2433 70.1945 63.4844 70.7804 69.6515 73.2994L70.8485 70.3671C64.3141 67.6992 60.655 67.0231 54.4008 67.088L54.4325 70.2547Z" fill="#F8F8F8"/>
<path fill-rule="evenodd" clip-rule="evenodd" d="M58.375 57.5833V62.3333H55.2083V57.5833H58.375Z" fill="#F8F8F8"/>
<path fill-rule="evenodd" clip-rule="evenodd" d="M63.9167 59.1666V63.9166H60.75V59.1666H63.9167Z" fill="#F8F8F8"/>
<path fill-rule="evenodd" clip-rule="evenodd" d="M69.4583 60.75V65.5H66.2916V60.75H69.4583Z" fill="#F8F8F8"/>
<path fill-rule="evenodd" clip-rule="evenodd" d="M95.5675 82.9213C89.7567 82.8612 86.5156 83.447 80.3485 85.9661L79.1515 83.0337C85.6859 80.3658 89.345 79.6897 95.5992 79.7547L95.5675 82.9213Z" fill="#F8F8F8"/>
<path fill-rule="evenodd" clip-rule="evenodd" d="M95.5675 76.5881C89.7567 76.5279 86.5156 77.1137 80.3485 79.6328L79.1515 76.7005C85.6859 74.0326 89.345 73.3565 95.5992 73.4214L95.5675 76.5881Z" fill="#F8F8F8"/>
<path fill-rule="evenodd" clip-rule="evenodd" d="M95.5675 70.2547C89.7567 70.1945 86.5156 70.7804 80.3485 73.2994L79.1515 70.3671C85.6859 67.6992 89.345 67.0231 95.5992 67.088L95.5675 70.2547Z" fill="#F8F8F8"/>
<path fill-rule="evenodd" clip-rule="evenodd" d="M91.625 57.5833V62.3333H94.7917V57.5833H91.625Z" fill="#F8F8F8"/>
<path fill-rule="evenodd" clip-rule="evenodd" d="M86.0833 59.1666V63.9166H89.25V59.1666H86.0833Z" fill="#F8F8F8"/>
<path fill-rule="evenodd" clip-rule="evenodd" d="M80.5416 60.75V65.5H83.7083V60.75H80.5416Z" fill="#F8F8F8"/>
</svg>
