<svg width="42" height="42" viewBox="0 0 42 42" fill="none" xmlns="http://www.w3.org/2000/svg">
<path d="M0.6875 20.9971C0.6875 32.2148 9.78223 41.3096 21 41.3096C32.2178 41.3096 41.3125 32.2148 41.3125 20.9971C41.3125 9.7793 32.2178 0.68457 21 0.68457C9.78223 0.68457 0.6875 9.7793 0.6875 20.9971ZM25.8213 20.9971L17.5518 12.7266C17.2711 12.4312 17.1169 12.0378 17.1222 11.6304C17.1274 11.2229 17.2916 10.8336 17.5797 10.5455C17.8678 10.2574 18.2571 10.0932 18.6645 10.088C19.072 10.0828 19.4653 10.2369 19.7607 10.5176L29.1357 19.8926C29.4285 20.1856 29.593 20.5828 29.593 20.9971C29.593 21.4113 29.4285 21.8086 29.1357 22.1016L19.7607 31.4766C19.4653 31.7572 19.072 31.9114 18.6645 31.9062C18.2571 31.9009 17.8678 31.7368 17.5797 31.4486C17.2916 31.1605 17.1274 30.7712 17.1222 30.3638C17.1169 29.9563 17.2711 29.563 17.5518 29.2676L25.8213 20.9971Z" fill="#334756"/>
</svg>
