<svg width="133" height="133" viewBox="0 0 133 133" fill="none" xmlns="http://www.w3.org/2000/svg">
<circle cx="66.5" cy="66.5" r="66" fill="white" stroke="white"/>
<path d="M41.5 97.125H55.5625V93.375H41.5C41.0029 93.3744 40.5263 93.1767 40.1748 92.8252C39.8233 92.4737 39.6256 91.9971 39.625 91.5V77.4375H35.875V91.5C35.8767 92.9913 36.4698 94.4211 37.5244 95.4756C38.5789 96.5302 40.0087 97.1233 41.5 97.125Z" fill="#334756"/>
<path d="M39.625 46.5C39.6256 46.0029 39.8233 45.5263 40.1748 45.1748C40.5263 44.8233 41.0029 44.6256 41.5 44.625H55.5625V40.875H41.5C40.0087 40.8767 38.5789 41.4698 37.5244 42.5244C36.4698 43.5789 35.8767 45.0087 35.875 46.5V60.5625H39.625V46.5Z" fill="#334756"/>
<path d="M86.5 40.875H72.4375V44.625H86.5C86.9971 44.6256 87.4737 44.8233 87.8252 45.1748C88.1767 45.5263 88.3744 46.0029 88.375 46.5V60.5625H92.125V46.5C92.1233 45.0087 91.5302 43.5789 90.4756 42.5244C89.4211 41.4698 87.9913 40.8767 86.5 40.875Z" fill="#334756"/>
<path d="M88.375 91.5C88.3744 91.9971 88.1767 92.4737 87.8252 92.8252C87.4737 93.1767 86.9971 93.3744 86.5 93.375H72.4375V97.125H86.5C87.9913 97.1233 89.4211 96.5302 90.4756 95.4756C91.5302 94.4211 92.1233 92.9913 92.125 91.5V77.4375H88.375V91.5Z" fill="#334756"/>
<path d="M80.875 69C80.875 59.6953 73.3047 52.125 64 52.125C54.6953 52.125 47.125 59.6953 47.125 69C47.125 78.3047 54.6953 85.875 64 85.875C73.3047 85.875 80.875 78.3047 80.875 69ZM64 82.125C61.4041 82.125 58.8665 81.3552 56.7081 79.913C54.5497 78.4708 52.8675 76.421 51.8741 74.0227C50.8807 71.6244 50.6208 68.9854 51.1272 66.4394C51.6336 63.8934 52.8837 61.5548 54.7192 59.7192C56.5548 57.8837 58.8934 56.6336 61.4394 56.1272C63.9854 55.6208 66.6244 55.8807 69.0227 56.8741C71.421 57.8675 73.4708 59.5497 74.913 61.7081C76.3552 63.8665 77.125 66.4041 77.125 69C77.1211 72.4798 75.737 75.8159 73.2764 78.2764C70.8159 80.737 67.4798 82.1211 64 82.125Z" fill="#334756"/>
</svg>
