<svg width="133" height="133" viewBox="0 0 133 133" fill="none" xmlns="http://www.w3.org/2000/svg">
<circle cx="66.5" cy="66.5" r="66" fill="white" stroke="white"/>
<path d="M75 75H83V83H75V75Z" fill="#334756"/>
<path d="M47 35H87C87.2931 35.0001 87.5826 35.0647 87.8481 35.1891C88.1135 35.3135 88.3484 35.4948 88.536 35.72L98.536 47.72C99.004 48.28 99 48.564 99 48.928V55C99 58.552 97.456 61.748 95 63.944V97C95 97.5304 94.7892 98.0391 94.4142 98.4142C94.0391 98.7892 93.5304 99 93 99H67V73C67 72.4695 66.7893 71.9608 66.4142 71.5858C66.0391 71.2107 65.5304 71 65 71H49C48.4696 71 47.9609 71.2107 47.5858 71.5858C47.2107 71.9608 47 72.4695 47 73V99H41C40.4696 99 39.9609 98.7892 39.5858 98.4142C39.2107 98.0391 39 97.5304 39 97V63.944C36.544 61.744 35 58.552 35 55V49C35.0002 48.5322 35.1644 48.0793 35.464 47.72L45.464 35.72C45.6516 35.4948 45.8864 35.3135 46.1519 35.1891C46.4173 35.0647 46.7068 35.0001 47 35ZM39 51V55C39 57.1217 39.8429 59.1565 41.3431 60.6568C42.8434 62.1571 44.8783 63 47 63C49.1217 63 51.1566 62.1571 52.6568 60.6568C54.1571 59.1565 55 57.1217 55 55V51H39ZM59 51V55C59 57.1217 59.8428 59.1565 61.3431 60.6568C62.8434 62.1571 64.8782 63 67 63C69.1217 63 71.1565 62.1571 72.6568 60.6568C74.1571 59.1565 75 57.1217 75 55V51H59ZM79 51V55C79 57.1217 79.8428 59.1565 81.3431 60.6568C82.8434 62.1571 84.8782 63 87 63C89.1217 63 91.1565 62.1571 92.6568 60.6568C94.1571 59.1565 95 57.1217 95 55V51H79ZM47.936 39L41.272 47H55.56L58.224 39H47.936ZM74.224 47L71.56 39H62.44L59.776 47H74.224ZM78.44 47H92.732L86.064 39H75.776L78.44 47ZM71 73V85C71 85.5304 71.2107 86.0391 71.5858 86.4142C71.9608 86.7892 72.4695 87 73 87H85C85.5304 87 86.0391 86.7892 86.4142 86.4142C86.7893 86.0391 87 85.5304 87 85V73C87 72.4695 86.7893 71.9608 86.4142 71.5858C86.0391 71.2107 85.5304 71 85 71H73C72.4695 71 71.9608 71.2107 71.5858 71.5858C71.2107 71.9608 71 72.4695 71 73Z" fill="#334756"/>
<path d="M63 98.9999V75H51V98.9999H63Z" fill="#334756"/>
</svg>
