<svg width="133" height="133" viewBox="0 0 133 133" fill="none" xmlns="http://www.w3.org/2000/svg">
<circle cx="66.5" cy="66.5" r="66" fill="white" stroke="white"/>
<g clip-path="url(#clip0)">
<path d="M95.0547 96.8125H92.4375V37.1406C92.4375 35.4061 91.0314 34 89.2969 34H45.3281C43.5936 34 42.1875 35.4061 42.1875 37.1406V96.8125H39.5703C38.7031 96.8125 38 97.5156 38 98.3828V101H96.625V98.3828C96.625 97.5156 95.9219 96.8125 95.0547 96.8125ZM54.75 43.9453C54.75 43.0781 55.4531 42.375 56.3203 42.375H61.5547C62.4219 42.375 63.125 43.0781 63.125 43.9453V49.1797C63.125 50.0469 62.4219 50.75 61.5547 50.75H56.3203C55.4531 50.75 54.75 50.0469 54.75 49.1797V43.9453ZM54.75 56.5078C54.75 55.6406 55.4531 54.9375 56.3203 54.9375H61.5547C62.4219 54.9375 63.125 55.6406 63.125 56.5078V61.7422C63.125 62.6094 62.4219 63.3125 61.5547 63.3125H56.3203C55.4531 63.3125 54.75 62.6094 54.75 61.7422V56.5078ZM61.5547 75.875H56.3203C55.4531 75.875 54.75 75.1719 54.75 74.3047V69.0703C54.75 68.2031 55.4531 67.5 56.3203 67.5H61.5547C62.4219 67.5 63.125 68.2031 63.125 69.0703V74.3047C63.125 75.1719 62.4219 75.875 61.5547 75.875ZM71.5 96.8125H63.125V85.8203C63.125 84.9531 63.8281 84.25 64.6953 84.25H69.9297C70.7969 84.25 71.5 84.9531 71.5 85.8203V96.8125ZM79.875 74.3047C79.875 75.1719 79.1719 75.875 78.3047 75.875H73.0703C72.2031 75.875 71.5 75.1719 71.5 74.3047V69.0703C71.5 68.2031 72.2031 67.5 73.0703 67.5H78.3047C79.1719 67.5 79.875 68.2031 79.875 69.0703V74.3047ZM79.875 61.7422C79.875 62.6094 79.1719 63.3125 78.3047 63.3125H73.0703C72.2031 63.3125 71.5 62.6094 71.5 61.7422V56.5078C71.5 55.6406 72.2031 54.9375 73.0703 54.9375H78.3047C79.1719 54.9375 79.875 55.6406 79.875 56.5078V61.7422ZM79.875 49.1797C79.875 50.0469 79.1719 50.75 78.3047 50.75H73.0703C72.2031 50.75 71.5 50.0469 71.5 49.1797V43.9453C71.5 43.0781 72.2031 42.375 73.0703 42.375H78.3047C79.1719 42.375 79.875 43.0781 79.875 43.9453V49.1797Z" fill="#334756"/>
</g>
<defs>
<clipPath id="clip0">
<rect width="58.625" height="67" fill="white" transform="translate(41 34)"/>
</clipPath>
</defs>
</svg>
