<svg width="133" height="133" viewBox="0 0 133 133" fill="none" xmlns="http://www.w3.org/2000/svg">
<circle cx="66.5" cy="66.5" r="66" fill="white" stroke="white"/>
<path d="M68.3135 39L38.4795 48.4972C38.4795 48.4972 33 48.3194 33 55.0349C33 57.8064 34.0653 59.8718 34.0653 59.8718L56.7939 103.734C58.967 107.728 63.5821 105.227 63.5821 105.227L98.4344 85.6358L97.1302 84.109C96.8231 82.2755 96.6444 78.8804 98.8018 76.3525C98.8498 76.2958 98.8588 76.2185 98.8845 76.1476L100 75.6309L68.3135 39ZM52.5696 64.6481L47.1917 54.8867L69.2392 47.3647L75.3395 55.0272L52.5696 64.6481ZM95.9934 80.4124C95.9208 81.0051 95.884 81.5823 95.8918 82.1235L73.0124 94.6538L95.9733 83.4107C95.9956 83.6155 96.0157 83.8217 96.0437 84.0072L66.7144 100.353L96.2748 85.2261L96.2927 85.306L63.5821 103.361C63.5665 103.373 62.0735 104.289 60.5772 104.289C59.0987 104.289 58.1775 103.413 57.7576 101.611C56.6778 96.9833 62.8128 94.36 62.9055 94.3213L96.8331 77.3845C96.5897 77.8999 96.4211 78.4243 96.2804 78.9474L74.7432 90.6454L95.9934 80.4124Z" fill="#334756"/>
</svg>
