<svg width="133" height="133" viewBox="0 0 133 133" fill="none" xmlns="http://www.w3.org/2000/svg">
<circle cx="66.5" cy="66.5" r="66" fill="white" stroke="white"/>
<path d="M66.8 41C59.6922 41 52.8755 43.8236 47.8495 48.8495C42.8236 53.8755 40 60.6922 40 67.8C40 74.9078 42.8236 81.7245 47.8495 86.7505C52.8755 91.7764 59.6922 94.6 66.8 94.6C73.9078 94.6 80.7245 91.7764 85.7505 86.7505C90.7764 81.7245 93.6 74.9078 93.6 67.8C93.6 60.6922 90.7764 53.8755 85.7505 48.8495C80.7245 43.8236 73.9078 41 66.8 41ZM57.0582 46.4605L65.1317 51.1706V56.8656L55.8555 63.4048L50.6295 61.5054L48.5324 53.0901C50.822 50.2492 53.7408 47.9796 57.0582 46.4605ZM43.4639 70.1182L49.5843 64.6912L54.7634 66.5706L58.2642 77.592L55.8623 81.1866H47.5442C45.2578 77.9079 43.8528 74.0964 43.4639 70.1182ZM61.3496 90.6135L58.6193 83.0894L60.9978 79.5284H72.6122L74.9941 83.0894L72.2638 90.6101C68.6762 91.4667 64.9372 91.4667 61.3496 90.6101V90.6135ZM86.0558 81.1866H77.7545L75.3425 77.5853L78.7762 66.5739L84.0257 64.6845L90.1361 70.1182C89.7472 74.0964 88.3422 77.9079 86.0558 81.1866ZM85.0843 53.1136L82.9872 61.4987L77.6808 63.4081L68.4783 56.8689V51.174L76.5485 46.4605C79.8717 47.9839 82.7942 50.2607 85.0843 53.1102V53.1136Z" fill="#334756"/>
</svg>
