<svg width="133" height="133" viewBox="0 0 133 133" fill="none" xmlns="http://www.w3.org/2000/svg">
<circle cx="66.5" cy="66.5" r="66" fill="white" stroke="white"/>
<path d="M96.8594 49.75H95.8125V43.4688C95.8125 37.6063 82.8312 33 66.5 33C50.1687 33 37.1875 37.6063 37.1875 43.4688V49.75H36.1406C34.4067 49.75 33 51.1554 33 52.8906V63.3594C33 65.0933 34.4067 66.5 36.1406 66.5H37.1875V87.4375C37.1875 89.7498 39.0627 91.625 41.375 91.625V95.8125C41.375 98.1248 43.2502 100 45.5625 100H49.75C52.0623 100 53.9375 98.1248 53.9375 95.8125V91.625H79.0625V95.8125C79.0625 98.1248 80.9377 100 83.25 100H87.4375C89.7498 100 91.625 98.1248 91.625 95.8125V91.625H92.4625C94.5562 91.625 95.8125 89.95 95.8125 88.275V66.5H96.8594C98.5933 66.5 100 65.0933 100 63.3594V52.8906C100 51.1554 98.5933 49.75 96.8594 49.75ZM53.9375 42.4219C53.9375 41.8435 54.406 41.375 54.9844 41.375H78.0156C78.594 41.375 79.0625 41.8435 79.0625 42.4219V44.5156C79.0625 45.094 78.594 45.5625 78.0156 45.5625H54.9844C54.406 45.5625 53.9375 45.094 53.9375 44.5156V42.4219ZM47.6562 85.3438C45.344 85.3438 43.4688 83.4685 43.4688 81.1562C43.4688 78.844 45.344 76.9688 47.6562 76.9688C49.9685 76.9688 51.8438 78.844 51.8438 81.1562C51.8438 83.4685 49.9685 85.3438 47.6562 85.3438ZM64.4062 70.6875H49.75C47.4377 70.6875 45.5625 68.8123 45.5625 66.5V53.9375C45.5625 51.6252 47.4377 49.75 49.75 49.75H64.4062V70.6875ZM68.5938 70.6875V49.75H83.25C85.5623 49.75 87.4375 51.6252 87.4375 53.9375V66.5C87.4375 68.8123 85.5623 70.6875 83.25 70.6875H68.5938ZM85.3438 85.3438C83.0315 85.3438 81.1562 83.4685 81.1562 81.1562C81.1562 78.844 83.0315 76.9688 85.3438 76.9688C87.656 76.9688 89.5312 78.844 89.5312 81.1562C89.5312 83.4685 87.656 85.3438 85.3438 85.3438Z" fill="#334756"/>
</svg>
