<svg width="114" height="114" viewBox="0 0 114 114" fill="none" xmlns="http://www.w3.org/2000/svg">
<path d="M30.4002 72.4533V33.5667H77.2668L82.2702 28.5H25.3335V72.4533H30.4002Z" fill="white"/>
<path d="M18.9998 22.1666H94.9998V72.8333H101.333V20.5833C101.333 19.3235 100.833 18.1154 99.9419 17.2246C99.0511 16.3338 97.8429 15.8333 96.5832 15.8333H17.4165C16.1567 15.8333 14.9485 16.3338 14.0577 17.2246C13.1669 18.1154 12.6665 19.3235 12.6665 20.5833V72.8333H18.9998V22.1666Z" fill="white"/>
<path d="M3.1665 79.1666V89.9333C3.1665 92.1169 4.03394 94.2111 5.57799 95.7551C7.12204 97.2992 9.21622 98.1666 11.3998 98.1666H102.41C104.593 98.1666 106.688 97.2992 108.232 95.7551C109.776 94.2111 110.643 92.1169 110.643 89.9333V79.1666H3.1665ZM104.5 89.9333C104.5 90.4372 104.3 90.9205 103.943 91.2768C103.587 91.6331 103.104 91.8333 102.6 91.8333H11.2732C10.7693 91.8333 10.286 91.6331 9.92967 91.2768C9.57335 90.9205 9.37317 90.4372 9.37317 89.9333V84.0116H40.8815C41.2774 84.9457 41.9382 85.7434 42.7824 86.3062C43.6265 86.8689 44.617 87.1721 45.6315 87.1783H68.2098C69.2244 87.1721 70.2148 86.8689 71.059 86.3062C71.9031 85.7434 72.5639 84.9457 72.9598 84.0116H104.5V89.9333Z" fill="white"/>
</svg>
