<svg width="97" height="97" viewBox="0 0 97 97" fill="none" xmlns="http://www.w3.org/2000/svg">
<path d="M64.6665 66.6875C74.7112 66.6875 82.854 58.5447 82.854 48.5C82.854 38.4553 74.7112 30.3125 64.6665 30.3125C54.6218 30.3125 46.479 38.4553 46.479 48.5C46.479 58.5447 54.6218 66.6875 64.6665 66.6875Z" fill="#334756"/>
<path d="M64.6665 24.25C51.329 24.25 40.4165 35.1625 40.4165 48.5C40.4165 61.8375 51.329 72.75 64.6665 72.75C78.004 72.75 88.9165 61.8375 88.9165 48.5C88.9165 35.1625 78.004 24.25 64.6665 24.25ZM64.6665 64.6667C55.7748 64.6667 48.4998 57.3917 48.4998 48.5C48.4998 39.6083 55.7748 32.3333 64.6665 32.3333C73.5582 32.3333 80.8332 39.6083 80.8332 48.5C80.8332 57.3917 73.5582 64.6667 64.6665 64.6667Z" fill="white"/>
<path d="M51.3293 44.4584L40.0127 10.3063L27.4835 55.9772L23.0377 44.4584H8.0835V52.5417H17.3793L29.1002 81.4397L40.821 38.1938L45.671 52.5417H60.6252V44.4584H51.3293Z" fill="white"/>
<path d="M64.6668 56.5833C69.1311 56.5833 72.7502 52.9643 72.7502 48.5C72.7502 44.0357 69.1311 40.4166 64.6668 40.4166C60.2025 40.4166 56.5835 44.0357 56.5835 48.5C56.5835 52.9643 60.2025 56.5833 64.6668 56.5833Z" fill="white"/>
</svg>
