<svg width="78" height="64" viewBox="0 0 78 64" fill="none" xmlns="http://www.w3.org/2000/svg">
<path d="M28.5 42.5C19.155 42.5 0.5 47.19 0.5 56.5V63.5H56.5V56.5C56.5 47.19 37.845 42.5 28.5 42.5ZM7.5 56.5C8.27 53.98 19.085 49.5 28.5 49.5C37.95 49.5 48.8 54.015 49.5 56.5H7.5ZM13.59 21.5H14.5C14.5 29.235 20.765 35.5 28.5 35.5C36.235 35.5 42.5 29.235 42.5 21.5H43.41C44.355 21.5 45.125 20.73 45.125 19.785V19.715C45.125 19.2602 44.9443 18.8239 44.6227 18.5023C44.3011 18.1807 43.8648 18 43.41 18H42.5C42.5 12.82 39.665 8.375 35.5 5.925V9.25C35.5 10.23 34.73 11 33.75 11C32.77 11 32 10.23 32 9.25V4.49C30.88 4.21 29.725 4 28.5 4C27.275 4 26.12 4.21 25 4.49V9.25C25 10.23 24.23 11 23.25 11C22.27 11 21.5 10.23 21.5 9.25V5.925C17.335 8.375 14.5 12.82 14.5 18H13.59C13.3648 18 13.1418 18.0444 12.9337 18.1305C12.7256 18.2167 12.5366 18.3431 12.3773 18.5023C12.2181 18.6616 12.0917 18.8506 12.0055 19.0587C11.9194 19.2668 11.875 19.4898 11.875 19.715V19.82C11.875 20.73 12.645 21.5 13.59 21.5ZM35.5 21.5C35.5 25.35 32.35 28.5 28.5 28.5C24.65 28.5 21.5 25.35 21.5 21.5H35.5ZM73.93 11.805L77.185 8.9L74.56 4.35L70.395 5.715C69.905 5.33 69.345 5.015 68.75 4.77L67.875 0.5H62.625L61.75 4.77C61.155 5.015 60.595 5.33 60.07 5.715L55.94 4.35L53.315 8.9L56.57 11.805C56.5 12.4 56.5 13.03 56.57 13.625L53.315 16.6L55.94 21.15L60.14 19.82C60.595 20.17 61.12 20.45 61.645 20.695L62.625 25H67.875L68.82 20.73C69.38 20.485 69.87 20.205 70.36 19.855L74.525 21.185L77.15 16.635L73.895 13.66C74 12.995 73.965 12.4 73.93 11.805ZM65.25 17.125C64.0897 17.125 62.9769 16.6641 62.1564 15.8436C61.3359 15.0231 60.875 13.9103 60.875 12.75C60.875 11.5897 61.3359 10.4769 62.1564 9.65641C62.9769 8.83594 64.0897 8.375 65.25 8.375C66.4103 8.375 67.5231 8.83594 68.3436 9.65641C69.1641 10.4769 69.625 11.5897 69.625 12.75C69.625 13.9103 69.1641 15.0231 68.3436 15.8436C67.5231 16.6641 66.4103 17.125 65.25 17.125ZM64.445 33.085L66.755 31.02L64.865 27.765L61.89 28.745C61.54 28.465 61.155 28.255 60.735 28.08L60.14 25H56.395L55.765 28.045C55.345 28.22 54.925 28.465 54.575 28.71L51.635 27.73L49.745 30.985L52.055 33.05C52.02 33.505 52.02 33.925 52.055 34.345L49.745 36.48L51.635 39.735L54.645 38.79C54.995 39.035 55.345 39.245 55.73 39.42L56.36 42.5H60.105L60.77 39.455C61.155 39.28 61.54 39.07 61.89 38.825L64.865 39.77L66.755 36.515L64.445 34.38C64.48 33.925 64.48 33.505 64.445 33.085ZM58.25 36.865C56.535 36.865 55.135 35.465 55.135 33.75C55.135 32.035 56.535 30.635 58.25 30.635C59.965 30.635 61.365 32.035 61.365 33.75C61.365 35.465 59.965 36.865 58.25 36.865Z" fill="white"/>
</svg>
