<svg width="150" height="150" viewBox="0 0 150 150" fill="none" xmlns="http://www.w3.org/2000/svg">
<circle cx="75" cy="75" r="75" fill="#334756"/>
<path d="M53.5 105.125H67.5625V101.375H53.5C53.0029 101.374 52.5263 101.177 52.1748 100.825C51.8233 100.474 51.6256 99.9971 51.625 99.5V85.4375H47.875V99.5C47.8767 100.991 48.4698 102.421 49.5244 103.476C50.5789 104.53 52.0087 105.123 53.5 105.125Z" fill="#F8F8F8"/>
<path d="M51.625 54.5C51.6256 54.0029 51.8233 53.5263 52.1748 53.1748C52.5263 52.8233 53.0029 52.6256 53.5 52.625H67.5625V48.875H53.5C52.0087 48.8767 50.5789 49.4698 49.5244 50.5244C48.4698 51.5789 47.8767 53.0087 47.875 54.5V68.5625H51.625V54.5Z" fill="#F8F8F8"/>
<path d="M98.5 48.875H84.4375V52.625H98.5C98.9971 52.6256 99.4737 52.8233 99.8252 53.1748C100.177 53.5263 100.374 54.0029 100.375 54.5V68.5625H104.125V54.5C104.123 53.0087 103.53 51.5789 102.476 50.5244C101.421 49.4698 99.9913 48.8767 98.5 48.875Z" fill="#F8F8F8"/>
<path d="M100.375 99.5C100.374 99.9971 100.177 100.474 99.8252 100.825C99.4737 101.177 98.9971 101.374 98.5 101.375H84.4375V105.125H98.5C99.9913 105.123 101.421 104.53 102.476 103.476C103.53 102.421 104.123 100.991 104.125 99.5V85.4375H100.375V99.5Z" fill="#F8F8F8"/>
<path d="M92.875 77C92.875 67.6953 85.3047 60.125 76 60.125C66.6953 60.125 59.125 67.6953 59.125 77C59.125 86.3047 66.6953 93.875 76 93.875C85.3047 93.875 92.875 86.3047 92.875 77ZM76 90.125C73.4041 90.125 70.8665 89.3552 68.7081 87.913C66.5497 86.4708 64.8675 84.421 63.8741 82.0227C62.8807 79.6244 62.6208 76.9854 63.1272 74.4394C63.6336 71.8934 64.8837 69.5548 66.7192 67.7192C68.5548 65.8837 70.8934 64.6336 73.4394 64.1272C75.9854 63.6208 78.6244 63.8807 81.0227 64.8741C83.421 65.8675 85.4708 67.5497 86.913 69.7081C88.3552 71.8665 89.125 74.4041 89.125 77C89.1211 80.4798 87.737 83.8159 85.2764 86.2764C82.8159 88.737 79.4798 90.1211 76 90.125Z" fill="#F8F8F8"/>
</svg>
