<svg width="150" height="150" viewBox="0 0 150 150" fill="none" xmlns="http://www.w3.org/2000/svg">
<circle cx="75" cy="75" r="75" fill="#334756"/>
<path d="M83 83H91V91H83V83Z" fill="white"/>
<path d="M55 43H95C95.2931 43.0001 95.5826 43.0647 95.8481 43.1891C96.1135 43.3135 96.3484 43.4948 96.536 43.72L106.536 55.72C107.004 56.28 107 56.564 107 56.928V63C107 66.552 105.456 69.748 103 71.944V105C103 105.53 102.789 106.039 102.414 106.414C102.039 106.789 101.53 107 101 107H75V81C75 80.4695 74.7893 79.9608 74.4142 79.5858C74.0391 79.2107 73.5304 79 73 79H57C56.4696 79 55.9609 79.2107 55.5858 79.5858C55.2107 79.9608 55 80.4695 55 81V107H49C48.4696 107 47.9609 106.789 47.5858 106.414C47.2107 106.039 47 105.53 47 105V71.944C44.544 69.744 43 66.552 43 63V57C43.0002 56.5322 43.1644 56.0793 43.464 55.72L53.464 43.72C53.6516 43.4948 53.8864 43.3135 54.1519 43.1891C54.4173 43.0647 54.7068 43.0001 55 43ZM47 59V63C47 65.1217 47.8429 67.1565 49.3431 68.6568C50.8434 70.1571 52.8783 71 55 71C57.1217 71 59.1566 70.1571 60.6568 68.6568C62.1571 67.1565 63 65.1217 63 63V59H47ZM67 59V63C67 65.1217 67.8428 67.1565 69.3431 68.6568C70.8434 70.1571 72.8782 71 75 71C77.1217 71 79.1565 70.1571 80.6568 68.6568C82.1571 67.1565 83 65.1217 83 63V59H67ZM87 59V63C87 65.1217 87.8428 67.1565 89.3431 68.6568C90.8434 70.1571 92.8782 71 95 71C97.1217 71 99.1565 70.1571 100.657 68.6568C102.157 67.1565 103 65.1217 103 63V59H87ZM55.936 47L49.272 55H63.56L66.224 47H55.936ZM82.224 55L79.56 47H70.44L67.776 55H82.224ZM86.44 55H100.732L94.064 47H83.776L86.44 55ZM79 81V93C79 93.5304 79.2107 94.0391 79.5858 94.4142C79.9608 94.7892 80.4695 95 81 95H93C93.5304 95 94.0391 94.7892 94.4142 94.4142C94.7893 94.0391 95 93.5304 95 93V81C95 80.4695 94.7893 79.9608 94.4142 79.5858C94.0391 79.2107 93.5304 79 93 79H81C80.4695 79 79.9608 79.2107 79.5858 79.5858C79.2107 79.9608 79 80.4695 79 81Z" fill="white"/>
<path d="M71 107V83H59V107H71Z" fill="white"/>
</svg>
