<svg width="150" height="150" viewBox="0 0 150 150" fill="none" xmlns="http://www.w3.org/2000/svg">
<circle cx="75" cy="75" r="75" fill="#334756"/>
<path fill-rule="evenodd" clip-rule="evenodd" d="M51 51C51 48.8783 51.8429 46.8434 53.3431 45.3431C54.8434 43.8429 56.8783 43 59 43H91C93.1217 43 95.1566 43.8429 96.6569 45.3431C98.1571 46.8434 99 48.8783 99 51V99C100.061 99 101.078 99.4214 101.828 100.172C102.579 100.922 103 101.939 103 103C103 104.061 102.579 105.078 101.828 105.828C101.078 106.579 100.061 107 99 107H87C85.9391 107 84.9217 106.579 84.1716 105.828C83.4214 105.078 83 104.061 83 103V95C83 93.9391 82.5786 92.9217 81.8284 92.1716C81.0783 91.4214 80.0609 91 79 91H71C69.9391 91 68.9217 91.4214 68.1716 92.1716C67.4214 92.9217 67 93.9391 67 95V103C67 104.061 66.5786 105.078 65.8284 105.828C65.0783 106.579 64.0609 107 63 107H51C49.9391 107 48.9217 106.579 48.1716 105.828C47.4214 105.078 47 104.061 47 103C47 101.939 47.4214 100.922 48.1716 100.172C48.9217 99.4214 49.9391 99 51 99V51ZM63 55H71V63H63V55ZM71 71H63V79H71V71ZM79 55H87V63H79V55ZM87 71H79V79H87V71Z" fill="#F8F8F8"/>
</svg>
