<svg width="150" height="150" viewBox="0 0 150 150" fill="none" xmlns="http://www.w3.org/2000/svg">
<circle cx="75" cy="75" r="75" fill="#334756"/>
<path d="M78.3135 41L48.4795 50.4972C48.4795 50.4972 43 50.3194 43 57.0349C43 59.8064 44.0653 61.8718 44.0653 61.8718L66.7939 105.734C68.967 109.728 73.5821 107.227 73.5821 107.227L108.434 87.6358L107.13 86.109C106.823 84.2755 106.644 80.8804 108.802 78.3525C108.85 78.2958 108.859 78.2185 108.884 78.1476L110 77.6309L78.3135 41ZM62.5696 66.6481L57.1917 56.8867L79.2392 49.3647L85.3395 57.0272L62.5696 66.6481ZM105.993 82.4124C105.921 83.0051 105.884 83.5823 105.892 84.1235L83.0124 96.6538L105.973 85.4107C105.996 85.6155 106.016 85.8217 106.044 86.0072L76.7144 102.353L106.275 87.2261L106.293 87.306L73.5821 105.361C73.5665 105.373 72.0735 106.289 70.5772 106.289C69.0987 106.289 68.1775 105.413 67.7576 103.611C66.6778 98.9833 72.8128 96.36 72.9055 96.3213L106.833 79.3845C106.59 79.8999 106.421 80.4243 106.28 80.9474L84.7432 92.6454L105.993 82.4124Z" fill="#F8F8F8"/>
</svg>
