<svg width="150" height="150" viewBox="0 0 150 150" fill="none" xmlns="http://www.w3.org/2000/svg">
<circle cx="75" cy="75" r="75" fill="#334756"/>
<path d="M64 86.7232V88.6665C64 92.6448 65.5804 96.4601 68.3934 99.2731C71.2064 102.086 75.0218 103.667 79 103.667C82.9783 103.667 86.7936 102.086 89.6066 99.2731C92.4197 96.4601 94 92.6448 94 88.6665V83.0998C91.775 82.3135 89.8997 80.7659 88.7055 78.7305C87.5112 76.6951 87.075 74.3031 87.474 71.9772C87.8729 69.6513 89.0812 67.5414 90.8854 66.0203C92.6896 64.4992 94.9735 63.6649 97.3333 63.6649C99.6932 63.6649 101.977 64.4992 103.781 66.0203C105.585 67.5414 106.794 69.6513 107.193 71.9772C107.592 74.3031 107.155 76.6951 105.961 78.7305C104.767 80.7659 102.892 82.3135 100.667 83.0998V88.6665C100.667 94.4129 98.3839 99.9239 94.3206 103.987C90.2574 108.05 84.7464 110.333 79 110.333C73.2536 110.333 67.7426 108.05 63.6794 103.987C59.6161 99.9239 57.3333 94.4129 57.3333 88.6665V86.7232C52.6731 85.9341 48.4427 83.5206 45.392 79.9103C42.3413 76.3001 40.6673 71.7264 40.6667 66.9998V50.3332C40.6667 48.5651 41.369 46.8694 42.6193 45.6191C43.8695 44.3689 45.5652 43.6665 47.3333 43.6665H50.6667C51.5507 43.6665 52.3986 44.0177 53.0237 44.6428C53.6488 45.2679 54 46.1158 54 46.9998C54 47.8839 53.6488 48.7317 53.0237 49.3569C52.3986 49.982 51.5507 50.3332 50.6667 50.3332H47.3333V66.9998C47.3333 70.5361 48.7381 73.9274 51.2386 76.4279C53.7391 78.9284 57.1304 80.3332 60.6667 80.3332C64.2029 80.3332 67.5943 78.9284 70.0948 76.4279C72.5952 73.9274 74 70.5361 74 66.9998V50.3332H70.6667C69.7826 50.3332 68.9348 49.982 68.3096 49.3569C67.6845 48.7317 67.3333 47.8839 67.3333 46.9998C67.3333 46.1158 67.6845 45.2679 68.3096 44.6428C68.9348 44.0177 69.7826 43.6665 70.6667 43.6665H74C75.7681 43.6665 77.4638 44.3689 78.714 45.6191C79.9643 46.8694 80.6667 48.5651 80.6667 50.3332V66.9998C80.6661 71.7264 78.9921 76.3001 75.9413 79.9103C72.8906 83.5206 68.6602 85.9341 64 86.7232ZM97.3333 76.9998C98.2174 76.9998 99.0652 76.6486 99.6904 76.0235C100.315 75.3984 100.667 74.5506 100.667 73.6665C100.667 72.7824 100.315 71.9346 99.6904 71.3095C99.0652 70.6844 98.2174 70.3332 97.3333 70.3332C96.4493 70.3332 95.6014 70.6844 94.9763 71.3095C94.3512 71.9346 94 72.7824 94 73.6665C94 74.5506 94.3512 75.3984 94.9763 76.0235C95.6014 76.6486 96.4493 76.9998 97.3333 76.9998Z" fill="#F8F8F8"/>
</svg>
