<svg width="150" height="150" viewBox="0 0 150 150" fill="none" xmlns="http://www.w3.org/2000/svg">
<circle cx="75" cy="75" r="75" fill="#334756"/>
<path d="M74.8 50C67.6922 50 60.8755 52.8236 55.8495 57.8495C50.8236 62.8755 48 69.6922 48 76.8C48 83.9078 50.8236 90.7245 55.8495 95.7505C60.8755 100.776 67.6922 103.6 74.8 103.6C81.9078 103.6 88.7245 100.776 93.7505 95.7505C98.7764 90.7245 101.6 83.9078 101.6 76.8C101.6 69.6922 98.7764 62.8755 93.7505 57.8495C88.7245 52.8236 81.9078 50 74.8 50ZM65.0582 55.4605L73.1317 60.1706V65.8656L63.8555 72.4048L58.6295 70.5054L56.5324 62.0901C58.822 59.2492 61.7408 56.9796 65.0582 55.4605ZM51.4639 79.1182L57.5843 73.6912L62.7634 75.5706L66.2642 86.592L63.8623 90.1866H55.5442C53.2578 86.9079 51.8528 83.0964 51.4639 79.1182ZM69.3496 99.6135L66.6193 92.0894L68.9978 88.5284H80.6122L82.9941 92.0894L80.2638 99.6101C76.6762 100.467 72.9372 100.467 69.3496 99.6101V99.6135ZM94.0558 90.1866H85.7545L83.3425 86.5853L86.7762 75.5739L92.0257 73.6845L98.1361 79.1182C97.7472 83.0964 96.3422 86.9079 94.0558 90.1866ZM93.0843 62.1136L90.9872 70.4987L85.6808 72.4081L76.4783 65.8689V60.174L84.5485 55.4605C87.8717 56.9839 90.7942 59.2607 93.0843 62.1102V62.1136Z" fill="#F8F8F8"/>
</svg>
