<svg width="150" height="150" viewBox="0 0 150 150" fill="none" xmlns="http://www.w3.org/2000/svg">
<circle cx="75" cy="75" r="75" fill="#334756"/>
<path d="M105.859 59.75H104.812V53.4688C104.812 47.6063 91.8312 43 75.5 43C59.1687 43 46.1875 47.6063 46.1875 53.4688V59.75H45.1406C43.4067 59.75 42 61.1554 42 62.8906V73.3594C42 75.0933 43.4067 76.5 45.1406 76.5H46.1875V97.4375C46.1875 99.7498 48.0627 101.625 50.375 101.625V105.812C50.375 108.125 52.2502 110 54.5625 110H58.75C61.0623 110 62.9375 108.125 62.9375 105.812V101.625H88.0625V105.812C88.0625 108.125 89.9377 110 92.25 110H96.4375C98.7498 110 100.625 108.125 100.625 105.812V101.625H101.462C103.556 101.625 104.812 99.95 104.812 98.275V76.5H105.859C107.593 76.5 109 75.0933 109 73.3594V62.8906C109 61.1554 107.593 59.75 105.859 59.75ZM62.9375 52.4219C62.9375 51.8435 63.406 51.375 63.9844 51.375H87.0156C87.594 51.375 88.0625 51.8435 88.0625 52.4219V54.5156C88.0625 55.094 87.594 55.5625 87.0156 55.5625H63.9844C63.406 55.5625 62.9375 55.094 62.9375 54.5156V52.4219ZM56.6562 95.3438C54.344 95.3438 52.4688 93.4685 52.4688 91.1562C52.4688 88.844 54.344 86.9688 56.6562 86.9688C58.9685 86.9688 60.8438 88.844 60.8438 91.1562C60.8438 93.4685 58.9685 95.3438 56.6562 95.3438ZM73.4062 80.6875H58.75C56.4377 80.6875 54.5625 78.8123 54.5625 76.5V63.9375C54.5625 61.6252 56.4377 59.75 58.75 59.75H73.4062V80.6875ZM77.5938 80.6875V59.75H92.25C94.5623 59.75 96.4375 61.6252 96.4375 63.9375V76.5C96.4375 78.8123 94.5623 80.6875 92.25 80.6875H77.5938ZM94.3438 95.3438C92.0315 95.3438 90.1562 93.4685 90.1562 91.1562C90.1562 88.844 92.0315 86.9688 94.3438 86.9688C96.656 86.9688 98.5312 88.844 98.5312 91.1562C98.5312 93.4685 96.656 95.3438 94.3438 95.3438Z" fill="#F8F8F8"/>
</svg>
