<svg width="34" height="34" viewBox="0 0 34 34" fill="none" xmlns="http://www.w3.org/2000/svg">
<path d="M21.0039 13.8967C21.501 13.8967 21.9039 13.4937 21.9039 12.9967C21.9039 12.4996 21.501 12.0967 21.0039 12.0967C20.5069 12.0967 20.1039 12.4996 20.1039 12.9967C20.1039 13.4937 20.5069 13.8967 21.0039 13.8967Z" fill="white"/>
<path d="M17.0001 13.1484C16.2384 13.1484 15.4938 13.3743 14.8605 13.7975C14.2272 14.2207 13.7335 14.8222 13.4421 15.5259C13.1506 16.2296 13.0743 17.004 13.2229 17.751C13.3715 18.4981 13.7383 19.1843 14.2769 19.7229C14.8155 20.2615 15.5017 20.6283 16.2488 20.7769C16.9959 20.9255 17.7702 20.8493 18.474 20.5578C19.1777 20.2663 19.7792 19.7727 20.2023 19.1393C20.6255 18.506 20.8514 17.7614 20.8514 16.9997C20.8514 15.9783 20.4456 14.9987 19.7234 14.2764C19.0011 13.5542 18.0216 13.1484 17.0001 13.1484ZM17.0001 19.4997C16.5057 19.4997 16.0223 19.3531 15.6112 19.0784C15.2001 18.8037 14.8797 18.4132 14.6904 17.9564C14.5012 17.4996 14.4517 16.9969 14.5482 16.512C14.6446 16.027 14.8827 15.5816 15.2324 15.2319C15.582 14.8823 16.0275 14.6442 16.5124 14.5477C16.9974 14.4513 17.5 14.5008 17.9569 14.69C18.4137 14.8792 18.8041 15.1996 19.0788 15.6108C19.3535 16.0219 19.5001 16.5052 19.5001 16.9997C19.5001 17.6627 19.2368 18.2986 18.7679 18.7675C18.2991 19.2363 17.6632 19.4997 17.0001 19.4997Z" fill="#334756"/>
<path d="M17.0001 10.8513C19.0026 10.8513 19.2401 10.8587 20.0307 10.895C20.5063 10.9006 20.9773 10.988 21.4232 11.1531C21.7468 11.2779 22.0406 11.4691 22.2858 11.7143C22.531 11.9595 22.7222 12.2533 22.847 12.5769C23.0122 13.0228 23.0995 13.4938 23.1051 13.9694C23.1414 14.76 23.1489 14.9975 23.1489 17.0006C23.1489 19.0037 23.1414 19.24 23.1051 20.0306C23.0995 20.5062 23.0122 20.9772 22.847 21.4231C22.7222 21.7467 22.531 22.0405 22.2858 22.2857C22.0406 22.5309 21.7468 22.7221 21.4232 22.8469C20.9773 23.012 20.5063 23.0994 20.0307 23.105C19.2401 23.1412 19.0026 23.1487 17.0001 23.1487C14.9976 23.1487 14.7601 23.1412 13.9695 23.105C13.494 23.0994 13.023 23.012 12.577 22.8469C12.2535 22.7221 11.9596 22.5309 11.7144 22.2857C11.4692 22.0405 11.2781 21.7467 11.1532 21.4231C10.9881 20.9772 10.9008 20.5062 10.8951 20.0306C10.8589 19.24 10.8514 19.0025 10.8514 17C10.8514 14.9975 10.8589 14.76 10.8951 13.9694C10.9008 13.4938 10.9881 13.0228 11.1532 12.5769C11.2781 12.2533 11.4692 11.9595 11.7144 11.7143C11.9596 11.4691 12.2535 11.2779 12.577 11.1531C13.023 10.988 13.494 10.9006 13.9695 10.895C14.7601 10.8587 14.9976 10.8513 17.0001 10.8513ZM17.0001 9.5C14.9632 9.5 14.7076 9.50875 13.9076 9.545C13.2856 9.55756 12.6702 9.67548 12.0876 9.89375C11.5893 10.0864 11.1368 10.3811 10.759 10.7589C10.3812 11.1367 10.0866 11.5892 9.89387 12.0875C9.67553 12.6703 9.55761 13.2859 9.54512 13.9081C9.50887 14.7081 9.50012 14.9625 9.50012 17C9.50012 19.0375 9.50887 19.2925 9.54512 20.0925C9.55768 20.7145 9.6756 21.3299 9.89387 21.9125C10.0866 22.4108 10.3812 22.8633 10.759 23.2411C11.1368 23.6189 11.5893 23.9136 12.0876 24.1063C12.6704 24.3246 13.286 24.4425 13.9082 24.455C14.7082 24.4913 14.9632 24.5 17.0001 24.5C19.037 24.5 19.2926 24.4913 20.0926 24.455C20.7148 24.4425 21.3305 24.3246 21.9132 24.1063C22.4115 23.9136 22.8641 23.6189 23.2419 23.2411C23.6196 22.8633 23.9143 22.4108 24.107 21.9125C24.3251 21.3297 24.4428 20.7141 24.4551 20.0919C24.4914 19.2919 24.5001 19.0375 24.5001 17C24.5001 14.9625 24.4914 14.7075 24.4551 13.9075C24.4426 13.2855 24.3246 12.6701 24.1064 12.0875C23.9137 11.5892 23.619 11.1367 23.2412 10.7589C22.8635 10.3811 22.4109 10.0864 21.9126 9.89375C21.3298 9.67562 20.7142 9.55791 20.092 9.54562C19.292 9.50812 19.0376 9.5 17.0001 9.5Z" fill="#334756"/>
<circle cx="17" cy="17" r="16" stroke="#334756" stroke-width="2"/>
</svg>
