<svg width="34" height="34" viewBox="0 0 34 34" fill="none" xmlns="http://www.w3.org/2000/svg">
<path d="M18.8334 23.5H15.5V13.5H18.8334V15.1667C19.1843 14.7202 19.6296 14.357 20.1375 14.103C20.6454 13.849 21.2032 13.7105 21.7709 13.6975C22.7637 13.703 23.7138 14.102 24.4129 14.807C25.112 15.512 25.5029 16.4655 25.5 17.4583V23.5H22.1667V17.875C22.1022 17.4246 21.8773 17.0127 21.5332 16.7151C21.1891 16.4174 20.7491 16.254 20.2942 16.255C20.0906 16.2614 19.8904 16.3089 19.7056 16.3947C19.5207 16.4804 19.3552 16.6026 19.2187 16.7539C19.0823 16.9051 18.9778 17.0824 18.9116 17.2751C18.8454 17.4678 18.8188 17.6718 18.8334 17.875V23.5ZM13.8334 23.5H10.5V13.5H13.8334V23.5ZM12.1667 11.8333C11.7247 11.8333 11.3007 11.6577 10.9882 11.3452C10.6756 11.0326 10.5 10.6087 10.5 10.1667C10.5 9.72464 10.6756 9.30072 10.9882 8.98816C11.3007 8.67559 11.7247 8.5 12.1667 8.5C12.6087 8.5 13.0326 8.67559 13.3452 8.98816C13.6578 9.30072 13.8334 9.72464 13.8334 10.1667C13.8334 10.6087 13.6578 11.0326 13.3452 11.3452C13.0326 11.6577 12.6087 11.8333 12.1667 11.8333Z" fill="#334756"/>
<circle cx="17" cy="17" r="16" stroke="#334756" stroke-width="2"/>
</svg>
