<svg width="65" height="45" viewBox="0 0 65 45" fill="none" xmlns="http://www.w3.org/2000/svg">
<g opacity="0.5">
<path d="M53.5476 44.9389C48.9322 44.9389 45.4411 43.0454 43.0743 39.2585C41.0625 36.0632 40.0566 32.1579 40.0566 27.5426C40.0566 21.6255 41.5358 16.3001 44.4944 11.5664C47.5713 6.83273 52.1866 3.04578 58.3404 0.205566L59.938 3.4008C56.2694 4.93925 53.0742 7.36527 50.3523 10.6788C47.7488 13.9924 46.447 17.3652 46.447 20.7971C46.447 22.2172 46.6245 23.4598 46.9796 24.5249C48.873 22.9864 51.0624 22.2172 53.5476 22.2172C56.7428 22.2172 59.4055 23.2823 61.5356 25.4124C63.7841 27.4243 64.9084 30.1461 64.9084 33.578C64.9084 36.7733 63.7841 39.4951 61.5356 41.7436C59.4055 43.8738 56.7428 44.9389 53.5476 44.9389Z" fill="#667580"/>
<path d="M13.8133 44.9389C9.19792 44.9389 5.70683 43.0454 3.33999 39.2585C1.32817 36.0632 0.322266 32.1579 0.322266 27.5426C0.322266 21.6255 1.80154 16.3001 4.76009 11.5664C7.83699 6.83273 12.4523 3.04578 18.6061 0.205566L20.2037 3.4008C16.5351 4.93925 13.3399 7.36527 10.618 10.6788C8.0145 13.9924 6.71274 17.3652 6.71274 20.7971C6.71274 22.2172 6.89025 23.4598 7.24528 24.5249C9.13875 22.9864 11.3281 22.2172 13.8133 22.2172C17.0085 22.2172 19.6712 23.2823 21.8014 25.4124C24.0499 27.4243 25.1741 30.1461 25.1741 33.578C25.1741 36.7733 24.0499 39.4951 21.8014 41.7436C19.6712 43.8738 17.0085 44.9389 13.8133 44.9389Z" fill="#667580"/>
</g>
</svg>
